<svg xmlns="http://www.w3.org/2000/svg" version="1.1" xmlns:xlink="http://www.w3.org/1999/xlink" xmlns:svgjs="http://svgjs.com/svgjs" width="500" height="500"><svg xmlns="http://www.w3.org/2000/svg" xmlns:xlink="http://www.w3.org/1999/xlink" width="500" zoomAndPan="magnify" viewBox="0 0 375 374.999991" height="500" preserveAspectRatio="xMidYMid meet" version="1.0"><defs><filter x="0%" y="0%" width="100%" height="100%" id="SvgjsFilter1028"><feColorMatrix values="0 0 0 0 1 0 0 0 0 1 0 0 0 0 1 0 0 0 1 0" color-interpolation-filters="sRGB"></feColorMatrix></filter><g></g><clipPath id="SvgjsClipPath1027"><path d="M 15 15 L 360 15 L 360 360 L 15 360 Z M 15 15 " clip-rule="nonzero"></path></clipPath><clipPath id="SvgjsClipPath1026"><path d="M 32.25 15 L 342.75 15 C 347.324219 15 351.710938 16.816406 354.949219 20.050781 C 358.183594 23.289062 360 27.675781 360 32.25 L 360 342.75 C 360 347.324219 358.183594 351.710938 354.949219 354.949219 C 351.710938 358.183594 347.324219 360 342.75 360 L 32.25 360 C 27.675781 360 23.289062 358.183594 20.050781 354.949219 C 16.816406 351.710938 15 347.324219 15 342.75 L 15 32.25 C 15 27.675781 16.816406 23.289062 20.050781 20.050781 C 23.289062 16.816406 27.675781 15 32.25 15 Z M 32.25 15 " clip-rule="nonzero"></path></clipPath><clipPath id="SvgjsClipPath1025"><path d="M 147.792969 94.980469 L 282.238281 94.980469 L 282.238281 182 L 147.792969 182 Z M 147.792969 94.980469 " clip-rule="nonzero"></path></clipPath><mask id="SvgjsMask1024"><g filter="url(#e215f49ab3)"><rect x="-37.5" width="450" fill="#000000" y="-37.499999" height="449.999989" fill-opacity="0.25"></rect></g></mask><clipPath id="SvgjsClipPath1023"><path d="M 0.792969 87 L 135.238281 87 L 135.238281 87.921875 L 0.792969 87.921875 Z M 0.792969 87 " clip-rule="nonzero"></path></clipPath><clipPath id="SvgjsClipPath1022"><path d="M 0.792969 65 L 135.238281 65 L 135.238281 67 L 0.792969 67 Z M 0.792969 65 " clip-rule="nonzero"></path></clipPath><clipPath id="SvgjsClipPath1021"><path d="M 0.792969 44 L 135.238281 44 L 135.238281 45 L 0.792969 45 Z M 0.792969 44 " clip-rule="nonzero"></path></clipPath><clipPath id="SvgjsClipPath1020"><path d="M 0.792969 22 L 135.238281 22 L 135.238281 23 L 0.792969 23 Z M 0.792969 22 " clip-rule="nonzero"></path></clipPath><clipPath id="SvgjsClipPath1019"><path d="M 0.792969 0.980469 L 135.238281 0.980469 L 135.238281 2 L 0.792969 2 Z M 0.792969 0.980469 " clip-rule="nonzero"></path></clipPath><clipPath id="SvgjsClipPath1018"><rect x="0" width="136" y="0" height="88"></rect></clipPath><clipPath id="SvgjsClipPath1017"><path d="M 147.792969 202 L 282.238281 202 L 282.238281 204 L 147.792969 204 Z M 147.792969 202 " clip-rule="nonzero"></path></clipPath><mask id="SvgjsMask1016"><g filter="url(#e215f49ab3)"><rect x="-37.5" width="450" fill="#000000" y="-37.499999" height="449.999989" fill-opacity="0.6"></rect></g></mask><clipPath id="SvgjsClipPath1015"><path d="M 0.792969 0.800781 L 135.238281 0.800781 L 135.238281 1.761719 L 0.792969 1.761719 Z M 0.792969 0.800781 " clip-rule="nonzero"></path></clipPath><clipPath id="SvgjsClipPath1014"><rect x="0" width="136" y="0" height="2"></rect></clipPath><clipPath id="SvgjsClipPath1013"><path d="M 147.792969 192.335938 L 172.488281 192.335938 L 172.488281 203.152344 L 147.792969 203.152344 Z M 147.792969 192.335938 " clip-rule="nonzero"></path></clipPath><clipPath id="SvgjsClipPath1012"><path d="M 147.792969 181.515625 L 172.488281 181.515625 L 172.488281 192.335938 L 147.792969 192.335938 Z M 147.792969 181.515625 " clip-rule="nonzero"></path></clipPath><clipPath id="SvgjsClipPath1011"><path d="M 175.230469 185.84375 L 199.925781 185.84375 L 199.925781 203.152344 L 175.230469 203.152344 Z M 175.230469 185.84375 " clip-rule="nonzero"></path></clipPath><clipPath id="SvgjsClipPath1010"><path d="M 175.230469 168.535156 L 199.925781 168.535156 L 199.925781 185.84375 L 175.230469 185.84375 Z M 175.230469 168.535156 " clip-rule="nonzero"></path></clipPath><clipPath id="SvgjsClipPath1009"><path d="M 175.230469 159.882812 L 199.925781 159.882812 L 199.925781 168.535156 L 175.230469 168.535156 Z M 175.230469 159.882812 " clip-rule="nonzero"></path></clipPath><clipPath id="SvgjsClipPath1008"><path d="M 202.667969 170.699219 L 227.363281 170.699219 L 227.363281 203.152344 L 202.667969 203.152344 Z M 202.667969 170.699219 " clip-rule="nonzero"></path></clipPath><clipPath id="SvgjsClipPath1007"><path d="M 202.667969 149.066406 L 227.363281 149.066406 L 227.363281 170.699219 L 202.667969 170.699219 Z M 202.667969 149.066406 " clip-rule="nonzero"></path></clipPath><clipPath id="SvgjsClipPath1006"><path d="M 202.667969 138.25 L 227.363281 138.25 L 227.363281 149.066406 L 202.667969 149.066406 Z M 202.667969 138.25 " clip-rule="nonzero"></path></clipPath><clipPath id="SvgjsClipPath1005"><path d="M 230.105469 164.210938 L 254.800781 164.210938 L 254.800781 203.152344 L 230.105469 203.152344 Z M 230.105469 164.210938 " clip-rule="nonzero"></path></clipPath><clipPath id="SvgjsClipPath1004"><path d="M 230.105469 133.921875 L 254.800781 133.921875 L 254.800781 164.210938 L 230.105469 164.210938 Z M 230.105469 133.921875 " clip-rule="nonzero"></path></clipPath><clipPath id="SvgjsClipPath1003"><path d="M 230.105469 116.613281 L 254.800781 116.613281 L 254.800781 133.921875 L 230.105469 133.921875 Z M 230.105469 116.613281 " clip-rule="nonzero"></path></clipPath><clipPath id="SvgjsClipPath1002"><path d="M 257.546875 155.554688 L 282.238281 155.554688 L 282.238281 203.152344 L 257.546875 203.152344 Z M 257.546875 155.554688 " clip-rule="nonzero"></path></clipPath><clipPath id="SvgjsClipPath1001"><path d="M 257.546875 112.285156 L 282.238281 112.285156 L 282.238281 155.554688 L 257.546875 155.554688 Z M 257.546875 112.285156 " clip-rule="nonzero"></path></clipPath><clipPath id="SvgjsClipPath1000"><path d="M 257.546875 94.980469 L 282.238281 94.980469 L 282.238281 112.285156 L 257.546875 112.285156 Z M 257.546875 94.980469 " clip-rule="nonzero"></path></clipPath></defs><g clip-path="url(#8c552a333f)"><g clip-path="url(#9fc1640f0b)"><path fill="#000000" d="M 15 15 L 360 15 L 360 360 L 15 360 Z M 15 15 " fill-opacity="1" fill-rule="nonzero"></path></g></g><g fill="#ffffff" fill-opacity="1"><g transform="translate(67.649714, 132.374991)"><g><path d="M 18.25 0 L 10.703125 0 L 10.703125 -29.40625 L 1 -29.40625 L 1 -35.703125 L 27.953125 -35.703125 L 27.953125 -29.40625 L 18.25 -29.40625 Z M 18.25 0 "></path></g></g></g><g fill="#ffffff" fill-opacity="1"><g transform="translate(96.595231, 132.374991)"><g><path d="M 19.15625 -27.796875 C 19.519531 -27.796875 19.953125 -27.78125 20.453125 -27.75 C 20.953125 -27.71875 21.351562 -27.664062 21.65625 -27.59375 L 21.09375 -20.59375 C 20.832031 -20.664062 20.484375 -20.722656 20.046875 -20.765625 C 19.617188 -20.816406 19.238281 -20.84375 18.90625 -20.84375 C 17.632812 -20.84375 16.414062 -20.617188 15.25 -20.171875 C 14.082031 -19.722656 13.140625 -19 12.421875 -18 C 11.703125 -17 11.34375 -15.632812 11.34375 -13.90625 L 11.34375 0 L 3.90625 0 L 3.90625 -27.296875 L 9.546875 -27.296875 L 10.65625 -22.703125 L 11 -22.703125 C 11.800781 -24.097656 12.898438 -25.296875 14.296875 -26.296875 C 15.703125 -27.296875 17.320312 -27.796875 19.15625 -27.796875 Z M 19.15625 -27.796875 "></path></g></g></g><g fill="#ffffff" fill-opacity="1"><g transform="translate(119.291713, 132.374991)"><g><path d="M 15.09375 -27.84375 C 18.757812 -27.84375 21.566406 -27.050781 23.515625 -25.46875 C 25.472656 -23.882812 26.453125 -21.460938 26.453125 -18.203125 L 26.453125 0 L 21.25 0 L 19.796875 -3.703125 L 19.59375 -3.703125 C 18.425781 -2.234375 17.191406 -1.164062 15.890625 -0.5 C 14.597656 0.164062 12.816406 0.5 10.546875 0.5 C 8.117188 0.5 6.101562 -0.195312 4.5 -1.59375 C 2.894531 -3 2.09375 -5.1875 2.09375 -8.15625 C 2.09375 -11.050781 3.109375 -13.179688 5.140625 -14.546875 C 7.179688 -15.910156 10.234375 -16.675781 14.296875 -16.84375 L 19.046875 -17 L 19.046875 -18.203125 C 19.046875 -19.628906 18.671875 -20.675781 17.921875 -21.34375 C 17.171875 -22.007812 16.128906 -22.34375 14.796875 -22.34375 C 13.460938 -22.34375 12.160156 -22.148438 10.890625 -21.765625 C 9.628906 -21.390625 8.363281 -20.914062 7.09375 -20.34375 L 4.65625 -25.40625 C 6.082031 -26.132812 7.695312 -26.722656 9.5 -27.171875 C 11.300781 -27.617188 13.164062 -27.84375 15.09375 -27.84375 Z M 19.046875 -12.65625 L 16.15625 -12.546875 C 13.75 -12.484375 12.078125 -12.050781 11.140625 -11.25 C 10.210938 -10.445312 9.75 -9.394531 9.75 -8.09375 C 9.75 -6.96875 10.082031 -6.160156 10.75 -5.671875 C 11.414062 -5.191406 12.28125 -4.953125 13.34375 -4.953125 C 14.945312 -4.953125 16.296875 -5.425781 17.390625 -6.375 C 18.492188 -7.320312 19.046875 -8.664062 19.046875 -10.40625 Z M 19.046875 -12.65625 "></path></g></g></g><g fill="#ffffff" fill-opacity="1"><g transform="translate(149.487039, 132.374991)"><g><path d="M 15 0.5 C 10.9375 0.5 7.796875 -0.613281 5.578125 -2.84375 C 3.359375 -5.082031 2.25 -8.632812 2.25 -13.5 C 2.25 -16.832031 2.816406 -19.546875 3.953125 -21.640625 C 5.085938 -23.742188 6.660156 -25.296875 8.671875 -26.296875 C 10.691406 -27.296875 13.019531 -27.796875 15.65625 -27.796875 C 17.519531 -27.796875 19.140625 -27.613281 20.515625 -27.25 C 21.898438 -26.882812 23.113281 -26.453125 24.15625 -25.953125 L 21.953125 -20.203125 C 20.785156 -20.671875 19.691406 -21.050781 18.671875 -21.34375 C 17.660156 -21.644531 16.65625 -21.796875 15.65625 -21.796875 C 11.78125 -21.796875 9.84375 -19.046875 9.84375 -13.546875 C 9.84375 -10.816406 10.351562 -8.800781 11.375 -7.5 C 12.394531 -6.195312 13.820312 -5.546875 15.65625 -5.546875 C 17.21875 -5.546875 18.597656 -5.753906 19.796875 -6.171875 C 20.992188 -6.585938 22.160156 -7.164062 23.296875 -7.90625 L 23.296875 -1.546875 C 22.160156 -0.816406 20.96875 -0.296875 19.71875 0.015625 C 18.46875 0.335938 16.894531 0.5 15 0.5 Z M 15 0.5 "></path></g></g></g><g fill="#ffffff" fill-opacity="1"><g transform="translate(175.183063, 132.374991)"><g><path d="M 11.34375 -38 L 11.34375 -21 C 11.34375 -19.96875 11.300781 -18.941406 11.21875 -17.921875 C 11.132812 -16.910156 11.046875 -15.882812 10.953125 -14.84375 L 11.046875 -14.84375 C 11.546875 -15.550781 12.0625 -16.253906 12.59375 -16.953125 C 13.132812 -17.648438 13.703125 -18.332031 14.296875 -19 L 21.953125 -27.296875 L 30.34375 -27.296875 L 19.5 -15.453125 L 31 0 L 22.40625 0 L 14.546875 -11.046875 L 11.34375 -8.5 L 11.34375 0 L 3.90625 0 L 3.90625 -38 Z M 11.34375 -38 "></path></g></g></g><g fill="#ffffff" fill-opacity="1"><g transform="translate(67.649714, 202.124987)"><g><path d="M 19.59375 0 L 11 -28 L 10.796875 -28 C 10.828125 -27.332031 10.875 -26.332031 10.9375 -25 C 11.007812 -23.664062 11.078125 -22.234375 11.140625 -20.703125 C 11.210938 -19.171875 11.25 -17.800781 11.25 -16.59375 L 11.25 0 L 4.5 0 L 4.5 -35.703125 L 14.796875 -35.703125 L 23.25 -8.40625 L 23.40625 -8.40625 L 32.34375 -35.703125 L 42.65625 -35.703125 L 42.65625 0 L 35.59375 0 L 35.59375 -16.90625 C 35.59375 -18.03125 35.617188 -19.328125 35.671875 -20.796875 C 35.722656 -22.265625 35.773438 -23.65625 35.828125 -24.96875 C 35.878906 -26.289062 35.921875 -27.285156 35.953125 -27.953125 L 35.75 -27.953125 L 26.546875 0 Z M 19.59375 0 "></path></g></g></g><g fill="#ffffff" fill-opacity="1"><g transform="translate(114.792412, 202.124987)"><g><path d="M 0 -27.296875 L 8.15625 -27.296875 L 13.296875 -11.953125 C 13.566406 -11.179688 13.765625 -10.410156 13.890625 -9.640625 C 14.023438 -8.878906 14.128906 -8.066406 14.203125 -7.203125 L 14.34375 -7.203125 C 14.445312 -8.066406 14.582031 -8.878906 14.75 -9.640625 C 14.914062 -10.410156 15.132812 -11.179688 15.40625 -11.953125 L 20.453125 -27.296875 L 28.453125 -27.296875 L 16.90625 3.5 C 15.832031 6.332031 14.3125 8.457031 12.34375 9.875 C 10.382812 11.289062 8.101562 12 5.5 12 C 4.632812 12 3.898438 11.957031 3.296875 11.875 C 2.703125 11.789062 2.171875 11.695312 1.703125 11.59375 L 1.703125 5.703125 C 2.035156 5.765625 2.46875 5.828125 3 5.890625 C 3.53125 5.960938 4.082031 6 4.65625 6 C 6.21875 6 7.445312 5.523438 8.34375 4.578125 C 9.25 3.628906 9.9375 2.488281 10.40625 1.15625 L 10.84375 -0.203125 Z M 0 -27.296875 "></path></g></g></g><g fill="#ffffff" fill-opacity="1"><g transform="translate(67.649714, 271.874982)"><g><path d="M 48.34375 -35.703125 L 39.25 0 L 30.65625 0 L 25.796875 -18.75 C 25.703125 -19.113281 25.578125 -19.660156 25.421875 -20.390625 C 25.273438 -21.128906 25.109375 -21.929688 24.921875 -22.796875 C 24.742188 -23.660156 24.578125 -24.476562 24.421875 -25.25 C 24.273438 -26.019531 24.1875 -26.632812 24.15625 -27.09375 C 24.113281 -26.632812 24.019531 -26.019531 23.875 -25.25 C 23.726562 -24.476562 23.570312 -23.664062 23.40625 -22.8125 C 23.238281 -21.96875 23.070312 -21.171875 22.90625 -20.421875 C 22.738281 -19.671875 22.601562 -19.097656 22.5 -18.703125 L 17.703125 0 L 9.09375 0 L 0 -35.703125 L 7.453125 -35.703125 L 12 -16.203125 C 12.195312 -15.429688 12.410156 -14.460938 12.640625 -13.296875 C 12.878906 -12.128906 13.097656 -10.960938 13.296875 -9.796875 C 13.492188 -8.628906 13.644531 -7.644531 13.75 -6.84375 C 13.851562 -7.675781 14.003906 -8.664062 14.203125 -9.8125 C 14.398438 -10.96875 14.609375 -12.085938 14.828125 -13.171875 C 15.046875 -14.253906 15.238281 -15.097656 15.40625 -15.703125 L 20.59375 -35.703125 L 27.75 -35.703125 L 32.953125 -15.703125 C 33.117188 -15.097656 33.304688 -14.253906 33.515625 -13.171875 C 33.734375 -12.085938 33.941406 -10.960938 34.140625 -9.796875 C 34.347656 -8.628906 34.5 -7.644531 34.59375 -6.84375 C 34.695312 -7.675781 34.847656 -8.664062 35.046875 -9.8125 C 35.242188 -10.96875 35.46875 -12.117188 35.71875 -13.265625 C 35.96875 -14.421875 36.175781 -15.398438 36.34375 -16.203125 L 40.90625 -35.703125 Z M 48.34375 -35.703125 "></path></g></g></g><g fill="#ffffff" fill-opacity="1"><g transform="translate(115.992233, 271.874982)"><g><path d="M 28.703125 -13.703125 C 28.703125 -9.171875 27.507812 -5.671875 25.125 -3.203125 C 22.738281 -0.734375 19.5 0.5 15.40625 0.5 C 12.863281 0.5 10.601562 -0.046875 8.625 -1.140625 C 6.644531 -2.242188 5.085938 -3.851562 3.953125 -5.96875 C 2.816406 -8.09375 2.25 -10.671875 2.25 -13.703125 C 2.25 -18.234375 3.429688 -21.710938 5.796875 -24.140625 C 8.160156 -26.578125 11.410156 -27.796875 15.546875 -27.796875 C 18.117188 -27.796875 20.382812 -27.242188 22.34375 -26.140625 C 24.3125 -25.046875 25.863281 -23.445312 27 -21.34375 C 28.132812 -19.25 28.703125 -16.703125 28.703125 -13.703125 Z M 9.84375 -13.703125 C 9.84375 -11.003906 10.285156 -8.960938 11.171875 -7.578125 C 12.054688 -6.191406 13.5 -5.5 15.5 -5.5 C 17.46875 -5.5 18.890625 -6.191406 19.765625 -7.578125 C 20.648438 -8.960938 21.09375 -11.003906 21.09375 -13.703125 C 21.09375 -16.398438 20.648438 -18.421875 19.765625 -19.765625 C 18.890625 -21.117188 17.453125 -21.796875 15.453125 -21.796875 C 13.484375 -21.796875 12.054688 -21.117188 11.171875 -19.765625 C 10.285156 -18.421875 9.84375 -16.398438 9.84375 -13.703125 Z M 9.84375 -13.703125 "></path></g></g></g><g fill="#ffffff" fill-opacity="1"><g transform="translate(146.937444, 271.874982)"><g><path d="M 19.15625 -27.796875 C 19.519531 -27.796875 19.953125 -27.78125 20.453125 -27.75 C 20.953125 -27.71875 21.351562 -27.664062 21.65625 -27.59375 L 21.09375 -20.59375 C 20.832031 -20.664062 20.484375 -20.722656 20.046875 -20.765625 C 19.617188 -20.816406 19.238281 -20.84375 18.90625 -20.84375 C 17.632812 -20.84375 16.414062 -20.617188 15.25 -20.171875 C 14.082031 -19.722656 13.140625 -19 12.421875 -18 C 11.703125 -17 11.34375 -15.632812 11.34375 -13.90625 L 11.34375 0 L 3.90625 0 L 3.90625 -27.296875 L 9.546875 -27.296875 L 10.65625 -22.703125 L 11 -22.703125 C 11.800781 -24.097656 12.898438 -25.296875 14.296875 -26.296875 C 15.703125 -27.296875 17.320312 -27.796875 19.15625 -27.796875 Z M 19.15625 -27.796875 "></path></g></g></g><g fill="#ffffff" fill-opacity="1"><g transform="translate(169.633926, 271.874982)"><g><path d="M 11.34375 -38 L 11.34375 -21 C 11.34375 -19.96875 11.300781 -18.941406 11.21875 -17.921875 C 11.132812 -16.910156 11.046875 -15.882812 10.953125 -14.84375 L 11.046875 -14.84375 C 11.546875 -15.550781 12.0625 -16.253906 12.59375 -16.953125 C 13.132812 -17.648438 13.703125 -18.332031 14.296875 -19 L 21.953125 -27.296875 L 30.34375 -27.296875 L 19.5 -15.453125 L 31 0 L 22.40625 0 L 14.546875 -11.046875 L 11.34375 -8.5 L 11.34375 0 L 3.90625 0 L 3.90625 -38 Z M 11.34375 -38 "></path></g></g></g><g fill="#ffffff" fill-opacity="1"><g transform="translate(200.629125, 271.874982)"><g><path d="M 28.703125 -13.703125 C 28.703125 -9.171875 27.507812 -5.671875 25.125 -3.203125 C 22.738281 -0.734375 19.5 0.5 15.40625 0.5 C 12.863281 0.5 10.601562 -0.046875 8.625 -1.140625 C 6.644531 -2.242188 5.085938 -3.851562 3.953125 -5.96875 C 2.816406 -8.09375 2.25 -10.671875 2.25 -13.703125 C 2.25 -18.234375 3.429688 -21.710938 5.796875 -24.140625 C 8.160156 -26.578125 11.410156 -27.796875 15.546875 -27.796875 C 18.117188 -27.796875 20.382812 -27.242188 22.34375 -26.140625 C 24.3125 -25.046875 25.863281 -23.445312 27 -21.34375 C 28.132812 -19.25 28.703125 -16.703125 28.703125 -13.703125 Z M 9.84375 -13.703125 C 9.84375 -11.003906 10.285156 -8.960938 11.171875 -7.578125 C 12.054688 -6.191406 13.5 -5.5 15.5 -5.5 C 17.46875 -5.5 18.890625 -6.191406 19.765625 -7.578125 C 20.648438 -8.960938 21.09375 -11.003906 21.09375 -13.703125 C 21.09375 -16.398438 20.648438 -18.421875 19.765625 -19.765625 C 18.890625 -21.117188 17.453125 -21.796875 15.453125 -21.796875 C 13.484375 -21.796875 12.054688 -21.117188 11.171875 -19.765625 C 10.285156 -18.421875 9.84375 -16.398438 9.84375 -13.703125 Z M 9.84375 -13.703125 "></path></g></g></g><g fill="#ffffff" fill-opacity="1"><g transform="translate(231.574336, 271.874982)"><g><path d="M 28.953125 -27.296875 L 28.953125 0 L 23.25 0 L 22.25 -3.5 L 21.84375 -3.5 C 20.976562 -2.101562 19.785156 -1.085938 18.265625 -0.453125 C 16.753906 0.179688 15.148438 0.5 13.453125 0.5 C 10.515625 0.5 8.160156 -0.289062 6.390625 -1.875 C 4.628906 -3.457031 3.75 -6 3.75 -9.5 L 3.75 -27.296875 L 11.203125 -27.296875 L 11.203125 -11.34375 C 11.203125 -9.382812 11.550781 -7.910156 12.25 -6.921875 C 12.945312 -5.941406 14.0625 -5.453125 15.59375 -5.453125 C 17.863281 -5.453125 19.414062 -6.222656 20.25 -7.765625 C 21.082031 -9.316406 21.5 -11.546875 21.5 -14.453125 L 21.5 -27.296875 Z M 28.953125 -27.296875 "></path></g></g></g><g fill="#ffffff" fill-opacity="1"><g transform="translate(264.419255, 271.874982)"><g><path d="M 15.40625 -5.453125 C 16.238281 -5.453125 17.035156 -5.523438 17.796875 -5.671875 C 18.566406 -5.828125 19.332031 -6.035156 20.09375 -6.296875 L 20.09375 -0.75 C 19.300781 -0.382812 18.3125 -0.0859375 17.125 0.140625 C 15.9375 0.378906 14.644531 0.5 13.25 0.5 C 11.613281 0.5 10.15625 0.234375 8.875 -0.296875 C 7.59375 -0.828125 6.578125 -1.742188 5.828125 -3.046875 C 5.078125 -4.347656 4.703125 -6.179688 4.703125 -8.546875 L 4.703125 -21.703125 L 1.15625 -21.703125 L 1.15625 -24.84375 L 5.25 -27.34375 L 7.40625 -33.09375 L 12.15625 -33.09375 L 12.15625 -27.296875 L 19.796875 -27.296875 L 19.796875 -21.703125 L 12.15625 -21.703125 L 12.15625 -8.546875 C 12.15625 -7.515625 12.453125 -6.738281 13.046875 -6.21875 C 13.648438 -5.707031 14.4375 -5.453125 15.40625 -5.453125 Z M 15.40625 -5.453125 "></path></g></g></g><g clip-path="url(#42f56f7953)"><g mask="url(#440b735adc)"><g transform="matrix(1, 0, 0, 1, 147, 94)"><g clip-path="url(#70afe56aff)"><g clip-path="url(#58bd5dfbba)"><path stroke-linecap="butt" transform="matrix(0.358526, 0, 0, 0.358526, 0.792299, 0.97913)" fill="none" stroke-linejoin="miter" d="M 0.00186672 241.367108 L 374.995979 241.367108 " stroke="#000000" stroke-width="1" stroke-opacity="1" stroke-miterlimit="4"></path></g><g clip-path="url(#e01b35ec5d)"><path stroke-linecap="butt" transform="matrix(0.358526, 0, 0, 0.358526, 0.792299, 0.97913)" fill="none" stroke-linejoin="miter" d="M 0.00186672 181.028989 L 374.995979 181.028989 " stroke="#000000" stroke-width="1" stroke-opacity="1" stroke-miterlimit="4"></path></g><g clip-path="url(#033777c980)"><path stroke-linecap="butt" transform="matrix(0.358526, 0, 0, 0.358526, 0.792299, 0.97913)" fill="none" stroke-linejoin="miter" d="M 0.00186672 120.690869 L 374.995979 120.690869 " stroke="#000000" stroke-width="1" stroke-opacity="1" stroke-miterlimit="4"></path></g><g clip-path="url(#c4445bb5da)"><path stroke-linecap="butt" transform="matrix(0.358526, 0, 0, 0.358526, 0.792299, 0.97913)" fill="none" stroke-linejoin="miter" d="M 0.00186672 60.341855 L 374.995979 60.341855 " stroke="#000000" stroke-width="1" stroke-opacity="1" stroke-miterlimit="4"></path></g><g clip-path="url(#e4f7d7cbeb)"><path stroke-linecap="butt" transform="matrix(0.358526, 0, 0, 0.358526, 0.792299, 0.97913)" fill="none" stroke-linejoin="miter" d="M 0.00186672 0.00373541 L 374.995979 0.00373541 " stroke="#000000" stroke-width="1" stroke-opacity="1" stroke-miterlimit="4"></path></g></g></g></g></g><g clip-path="url(#61f89fc53c)"><g mask="url(#25fedb3291)"><g transform="matrix(1, 0, 0, 1, 147, 202)"><g clip-path="url(#e0d2af6f8a)"><g clip-path="url(#b15869b168)"><path stroke-linecap="butt" transform="matrix(0.358526, 0, 0, 0.358526, 0.792299, -107.02087)" fill="none" stroke-linejoin="miter" d="M 0.00186672 301.716122 L 374.995979 301.716122 " stroke="#000000" stroke-width="1" stroke-opacity="1" stroke-miterlimit="4"></path></g></g></g></g></g><g clip-path="url(#06226f92b8)"><path fill="#41b8d5" d="M 149.769531 181.515625 L 170.511719 181.515625 C 170.773438 181.515625 171.023438 181.566406 171.265625 181.667969 C 171.507812 181.769531 171.722656 181.910156 171.90625 182.097656 C 172.09375 182.28125 172.234375 182.496094 172.335938 182.738281 C 172.4375 182.980469 172.488281 183.230469 172.488281 183.492188 L 172.488281 203.152344 C 172.488281 203.414062 172.4375 203.667969 172.335938 203.90625 C 172.234375 204.148438 172.09375 204.363281 171.90625 204.550781 C 171.722656 204.734375 171.507812 204.878906 171.265625 204.976562 C 171.023438 205.078125 170.773438 205.128906 170.511719 205.128906 L 149.769531 205.128906 C 149.507812 205.128906 149.253906 205.078125 149.011719 204.976562 C 148.769531 204.878906 148.554688 204.734375 148.371094 204.550781 C 148.1875 204.363281 148.042969 204.148438 147.941406 203.90625 C 147.84375 203.667969 147.792969 203.414062 147.792969 203.152344 L 147.792969 183.492188 C 147.792969 183.230469 147.84375 182.980469 147.941406 182.738281 C 148.042969 182.496094 148.1875 182.28125 148.371094 182.097656 C 148.554688 181.910156 148.769531 181.769531 149.011719 181.667969 C 149.253906 181.566406 149.507812 181.515625 149.769531 181.515625 Z M 149.769531 181.515625 " fill-opacity="1" fill-rule="nonzero"></path></g><g clip-path="url(#9871e9d021)"><path fill="#2d8bba" d="M 149.769531 181.515625 L 170.511719 181.515625 C 170.773438 181.515625 171.023438 181.566406 171.265625 181.667969 C 171.507812 181.769531 171.722656 181.910156 171.90625 182.097656 C 172.09375 182.28125 172.234375 182.496094 172.335938 182.738281 C 172.4375 182.980469 172.488281 183.230469 172.488281 183.492188 L 172.488281 203.152344 C 172.488281 203.414062 172.4375 203.667969 172.335938 203.90625 C 172.234375 204.148438 172.09375 204.363281 171.90625 204.550781 C 171.722656 204.734375 171.507812 204.878906 171.265625 204.976562 C 171.023438 205.078125 170.773438 205.128906 170.511719 205.128906 L 149.769531 205.128906 C 149.507812 205.128906 149.253906 205.078125 149.011719 204.976562 C 148.769531 204.878906 148.554688 204.734375 148.371094 204.550781 C 148.1875 204.363281 148.042969 204.148438 147.941406 203.90625 C 147.84375 203.667969 147.792969 203.414062 147.792969 203.152344 L 147.792969 183.492188 C 147.792969 183.230469 147.84375 182.980469 147.941406 182.738281 C 148.042969 182.496094 148.1875 182.28125 148.371094 182.097656 C 148.554688 181.910156 148.769531 181.769531 149.011719 181.667969 C 149.253906 181.566406 149.507812 181.515625 149.769531 181.515625 Z M 149.769531 181.515625 " fill-opacity="1" fill-rule="nonzero"></path></g><g clip-path="url(#92dcdaace8)"><path fill="#6ce5e8" d="M 177.207031 159.882812 L 197.949219 159.882812 C 198.210938 159.882812 198.464844 159.933594 198.707031 160.035156 C 198.949219 160.132812 199.160156 160.277344 199.347656 160.460938 C 199.53125 160.648438 199.675781 160.859375 199.773438 161.101562 C 199.875 161.34375 199.925781 161.597656 199.925781 161.859375 L 199.925781 203.152344 C 199.925781 203.414062 199.875 203.667969 199.773438 203.90625 C 199.675781 204.148438 199.53125 204.363281 199.347656 204.550781 C 199.160156 204.734375 198.949219 204.878906 198.707031 204.976562 C 198.464844 205.078125 198.210938 205.128906 197.949219 205.128906 L 177.207031 205.128906 C 176.945312 205.128906 176.691406 205.078125 176.449219 204.976562 C 176.207031 204.878906 175.996094 204.734375 175.808594 204.550781 C 175.625 204.363281 175.480469 204.148438 175.382812 203.90625 C 175.28125 203.667969 175.230469 203.414062 175.230469 203.152344 L 175.230469 161.859375 C 175.230469 161.597656 175.28125 161.34375 175.382812 161.101562 C 175.480469 160.859375 175.625 160.648438 175.808594 160.460938 C 175.996094 160.277344 176.207031 160.132812 176.449219 160.035156 C 176.691406 159.933594 176.945312 159.882812 177.207031 159.882812 Z M 177.207031 159.882812 " fill-opacity="1" fill-rule="nonzero"></path></g><g clip-path="url(#d58a4daa14)"><path fill="#41b8d5" d="M 177.207031 159.882812 L 197.949219 159.882812 C 198.210938 159.882812 198.464844 159.933594 198.707031 160.035156 C 198.949219 160.132812 199.160156 160.277344 199.347656 160.460938 C 199.53125 160.648438 199.675781 160.859375 199.773438 161.101562 C 199.875 161.34375 199.925781 161.597656 199.925781 161.859375 L 199.925781 203.152344 C 199.925781 203.414062 199.875 203.667969 199.773438 203.90625 C 199.675781 204.148438 199.53125 204.363281 199.347656 204.550781 C 199.160156 204.734375 198.949219 204.878906 198.707031 204.976562 C 198.464844 205.078125 198.210938 205.128906 197.949219 205.128906 L 177.207031 205.128906 C 176.945312 205.128906 176.691406 205.078125 176.449219 204.976562 C 176.207031 204.878906 175.996094 204.734375 175.808594 204.550781 C 175.625 204.363281 175.480469 204.148438 175.382812 203.90625 C 175.28125 203.667969 175.230469 203.414062 175.230469 203.152344 L 175.230469 161.859375 C 175.230469 161.597656 175.28125 161.34375 175.382812 161.101562 C 175.480469 160.859375 175.625 160.648438 175.808594 160.460938 C 175.996094 160.277344 176.207031 160.132812 176.449219 160.035156 C 176.691406 159.933594 176.945312 159.882812 177.207031 159.882812 Z M 177.207031 159.882812 " fill-opacity="1" fill-rule="nonzero"></path></g><g clip-path="url(#43621ad211)"><path fill="#2d8bba" d="M 177.207031 159.882812 L 197.949219 159.882812 C 198.210938 159.882812 198.464844 159.933594 198.707031 160.035156 C 198.949219 160.132812 199.160156 160.277344 199.347656 160.460938 C 199.53125 160.648438 199.675781 160.859375 199.773438 161.101562 C 199.875 161.34375 199.925781 161.597656 199.925781 161.859375 L 199.925781 203.152344 C 199.925781 203.414062 199.875 203.667969 199.773438 203.90625 C 199.675781 204.148438 199.53125 204.363281 199.347656 204.550781 C 199.160156 204.734375 198.949219 204.878906 198.707031 204.976562 C 198.464844 205.078125 198.210938 205.128906 197.949219 205.128906 L 177.207031 205.128906 C 176.945312 205.128906 176.691406 205.078125 176.449219 204.976562 C 176.207031 204.878906 175.996094 204.734375 175.808594 204.550781 C 175.625 204.363281 175.480469 204.148438 175.382812 203.90625 C 175.28125 203.667969 175.230469 203.414062 175.230469 203.152344 L 175.230469 161.859375 C 175.230469 161.597656 175.28125 161.34375 175.382812 161.101562 C 175.480469 160.859375 175.625 160.648438 175.808594 160.460938 C 175.996094 160.277344 176.207031 160.132812 176.449219 160.035156 C 176.691406 159.933594 176.945312 159.882812 177.207031 159.882812 Z M 177.207031 159.882812 " fill-opacity="1" fill-rule="nonzero"></path></g><g clip-path="url(#9dbc88bddb)"><path fill="#6ce5e8" d="M 204.644531 138.25 L 225.386719 138.25 C 225.648438 138.25 225.902344 138.296875 226.144531 138.398438 C 226.386719 138.5 226.597656 138.640625 226.785156 138.828125 C 226.96875 139.011719 227.113281 139.226562 227.210938 139.46875 C 227.3125 139.710938 227.363281 139.960938 227.363281 140.222656 L 227.363281 203.152344 C 227.363281 203.414062 227.3125 203.667969 227.210938 203.90625 C 227.113281 204.148438 226.96875 204.363281 226.785156 204.550781 C 226.597656 204.734375 226.386719 204.878906 226.144531 204.976562 C 225.902344 205.078125 225.648438 205.128906 225.386719 205.128906 L 204.644531 205.128906 C 204.382812 205.128906 204.128906 205.078125 203.886719 204.976562 C 203.644531 204.878906 203.433594 204.734375 203.246094 204.550781 C 203.0625 204.363281 202.917969 204.148438 202.820312 203.90625 C 202.71875 203.667969 202.667969 203.414062 202.667969 203.152344 L 202.667969 140.222656 C 202.667969 139.960938 202.71875 139.710938 202.820312 139.46875 C 202.917969 139.226562 203.0625 139.011719 203.246094 138.828125 C 203.433594 138.640625 203.644531 138.5 203.886719 138.398438 C 204.128906 138.296875 204.382812 138.25 204.644531 138.25 Z M 204.644531 138.25 " fill-opacity="1" fill-rule="nonzero"></path></g><g clip-path="url(#96f2c4195e)"><path fill="#41b8d5" d="M 204.644531 138.25 L 225.386719 138.25 C 225.648438 138.25 225.902344 138.296875 226.144531 138.398438 C 226.386719 138.5 226.597656 138.640625 226.785156 138.828125 C 226.96875 139.011719 227.113281 139.226562 227.210938 139.46875 C 227.3125 139.710938 227.363281 139.960938 227.363281 140.222656 L 227.363281 203.152344 C 227.363281 203.414062 227.3125 203.667969 227.210938 203.90625 C 227.113281 204.148438 226.96875 204.363281 226.785156 204.550781 C 226.597656 204.734375 226.386719 204.878906 226.144531 204.976562 C 225.902344 205.078125 225.648438 205.128906 225.386719 205.128906 L 204.644531 205.128906 C 204.382812 205.128906 204.128906 205.078125 203.886719 204.976562 C 203.644531 204.878906 203.433594 204.734375 203.246094 204.550781 C 203.0625 204.363281 202.917969 204.148438 202.820312 203.90625 C 202.71875 203.667969 202.667969 203.414062 202.667969 203.152344 L 202.667969 140.222656 C 202.667969 139.960938 202.71875 139.710938 202.820312 139.46875 C 202.917969 139.226562 203.0625 139.011719 203.246094 138.828125 C 203.433594 138.640625 203.644531 138.5 203.886719 138.398438 C 204.128906 138.296875 204.382812 138.25 204.644531 138.25 Z M 204.644531 138.25 " fill-opacity="1" fill-rule="nonzero"></path></g><g clip-path="url(#45ff3f69d1)"><path fill="#2d8bba" d="M 204.644531 138.25 L 225.386719 138.25 C 225.648438 138.25 225.902344 138.296875 226.144531 138.398438 C 226.386719 138.5 226.597656 138.640625 226.785156 138.828125 C 226.96875 139.011719 227.113281 139.226562 227.210938 139.46875 C 227.3125 139.710938 227.363281 139.960938 227.363281 140.222656 L 227.363281 203.152344 C 227.363281 203.414062 227.3125 203.667969 227.210938 203.90625 C 227.113281 204.148438 226.96875 204.363281 226.785156 204.550781 C 226.597656 204.734375 226.386719 204.878906 226.144531 204.976562 C 225.902344 205.078125 225.648438 205.128906 225.386719 205.128906 L 204.644531 205.128906 C 204.382812 205.128906 204.128906 205.078125 203.886719 204.976562 C 203.644531 204.878906 203.433594 204.734375 203.246094 204.550781 C 203.0625 204.363281 202.917969 204.148438 202.820312 203.90625 C 202.71875 203.667969 202.667969 203.414062 202.667969 203.152344 L 202.667969 140.222656 C 202.667969 139.960938 202.71875 139.710938 202.820312 139.46875 C 202.917969 139.226562 203.0625 139.011719 203.246094 138.828125 C 203.433594 138.640625 203.644531 138.5 203.886719 138.398438 C 204.128906 138.296875 204.382812 138.25 204.644531 138.25 Z M 204.644531 138.25 " fill-opacity="1" fill-rule="nonzero"></path></g><g clip-path="url(#3efffc60fe)"><path fill="#6ce5e8" d="M 232.082031 116.613281 L 252.824219 116.613281 C 253.089844 116.613281 253.339844 116.664062 253.582031 116.765625 C 253.824219 116.863281 254.039062 117.007812 254.222656 117.191406 C 254.40625 117.378906 254.550781 117.589844 254.652344 117.832031 C 254.75 118.074219 254.800781 118.328125 254.800781 118.589844 L 254.800781 203.152344 C 254.800781 203.414062 254.75 203.667969 254.652344 203.90625 C 254.550781 204.148438 254.40625 204.363281 254.222656 204.550781 C 254.039062 204.734375 253.824219 204.878906 253.582031 204.976562 C 253.339844 205.078125 253.089844 205.128906 252.824219 205.128906 L 232.082031 205.128906 C 231.820312 205.128906 231.570312 205.078125 231.328125 204.976562 C 231.085938 204.878906 230.871094 204.734375 230.6875 204.550781 C 230.5 204.363281 230.359375 204.148438 230.257812 203.90625 C 230.15625 203.667969 230.105469 203.414062 230.105469 203.152344 L 230.105469 118.589844 C 230.105469 118.328125 230.15625 118.074219 230.257812 117.832031 C 230.359375 117.589844 230.5 117.378906 230.6875 117.191406 C 230.871094 117.007812 231.085938 116.863281 231.328125 116.765625 C 231.570312 116.664062 231.820312 116.613281 232.082031 116.613281 Z M 232.082031 116.613281 " fill-opacity="1" fill-rule="nonzero"></path></g><g clip-path="url(#9fc39612bb)"><path fill="#41b8d5" d="M 232.082031 116.613281 L 252.824219 116.613281 C 253.089844 116.613281 253.339844 116.664062 253.582031 116.765625 C 253.824219 116.863281 254.039062 117.007812 254.222656 117.191406 C 254.40625 117.378906 254.550781 117.589844 254.652344 117.832031 C 254.75 118.074219 254.800781 118.328125 254.800781 118.589844 L 254.800781 203.152344 C 254.800781 203.414062 254.75 203.667969 254.652344 203.90625 C 254.550781 204.148438 254.40625 204.363281 254.222656 204.550781 C 254.039062 204.734375 253.824219 204.878906 253.582031 204.976562 C 253.339844 205.078125 253.089844 205.128906 252.824219 205.128906 L 232.082031 205.128906 C 231.820312 205.128906 231.570312 205.078125 231.328125 204.976562 C 231.085938 204.878906 230.871094 204.734375 230.6875 204.550781 C 230.5 204.363281 230.359375 204.148438 230.257812 203.90625 C 230.15625 203.667969 230.105469 203.414062 230.105469 203.152344 L 230.105469 118.589844 C 230.105469 118.328125 230.15625 118.074219 230.257812 117.832031 C 230.359375 117.589844 230.5 117.378906 230.6875 117.191406 C 230.871094 117.007812 231.085938 116.863281 231.328125 116.765625 C 231.570312 116.664062 231.820312 116.613281 232.082031 116.613281 Z M 232.082031 116.613281 " fill-opacity="1" fill-rule="nonzero"></path></g><g clip-path="url(#3f9e577d14)"><path fill="#2d8bba" d="M 232.082031 116.613281 L 252.824219 116.613281 C 253.089844 116.613281 253.339844 116.664062 253.582031 116.765625 C 253.824219 116.863281 254.039062 117.007812 254.222656 117.191406 C 254.40625 117.378906 254.550781 117.589844 254.652344 117.832031 C 254.75 118.074219 254.800781 118.328125 254.800781 118.589844 L 254.800781 203.152344 C 254.800781 203.414062 254.75 203.667969 254.652344 203.90625 C 254.550781 204.148438 254.40625 204.363281 254.222656 204.550781 C 254.039062 204.734375 253.824219 204.878906 253.582031 204.976562 C 253.339844 205.078125 253.089844 205.128906 252.824219 205.128906 L 232.082031 205.128906 C 231.820312 205.128906 231.570312 205.078125 231.328125 204.976562 C 231.085938 204.878906 230.871094 204.734375 230.6875 204.550781 C 230.5 204.363281 230.359375 204.148438 230.257812 203.90625 C 230.15625 203.667969 230.105469 203.414062 230.105469 203.152344 L 230.105469 118.589844 C 230.105469 118.328125 230.15625 118.074219 230.257812 117.832031 C 230.359375 117.589844 230.5 117.378906 230.6875 117.191406 C 230.871094 117.007812 231.085938 116.863281 231.328125 116.765625 C 231.570312 116.664062 231.820312 116.613281 232.082031 116.613281 Z M 232.082031 116.613281 " fill-opacity="1" fill-rule="nonzero"></path></g><g clip-path="url(#45e5f2fbb7)"><path fill="#6ce5e8" d="M 259.519531 94.980469 L 280.265625 94.980469 C 280.527344 94.980469 280.777344 95.027344 281.019531 95.128906 C 281.261719 95.230469 281.476562 95.371094 281.660156 95.558594 C 281.847656 95.742188 281.988281 95.957031 282.089844 96.199219 C 282.191406 96.441406 282.238281 96.691406 282.238281 96.953125 L 282.238281 203.152344 C 282.238281 203.414062 282.191406 203.667969 282.089844 203.90625 C 281.988281 204.148438 281.847656 204.363281 281.660156 204.550781 C 281.476562 204.734375 281.261719 204.878906 281.019531 204.976562 C 280.777344 205.078125 280.527344 205.128906 280.265625 205.128906 L 259.519531 205.128906 C 259.257812 205.128906 259.007812 205.078125 258.765625 204.976562 C 258.523438 204.878906 258.308594 204.734375 258.125 204.550781 C 257.9375 204.363281 257.796875 204.148438 257.695312 203.90625 C 257.59375 203.667969 257.546875 203.414062 257.546875 203.152344 L 257.546875 96.953125 C 257.546875 96.691406 257.59375 96.441406 257.695312 96.199219 C 257.796875 95.957031 257.9375 95.742188 258.125 95.558594 C 258.308594 95.371094 258.523438 95.230469 258.765625 95.128906 C 259.007812 95.027344 259.257812 94.980469 259.519531 94.980469 Z M 259.519531 94.980469 " fill-opacity="1" fill-rule="nonzero"></path></g><g clip-path="url(#cb2b37ef44)"><path fill="#41b8d5" d="M 259.519531 94.980469 L 280.265625 94.980469 C 280.527344 94.980469 280.777344 95.027344 281.019531 95.128906 C 281.261719 95.230469 281.476562 95.371094 281.660156 95.558594 C 281.847656 95.742188 281.988281 95.957031 282.089844 96.199219 C 282.191406 96.441406 282.238281 96.691406 282.238281 96.953125 L 282.238281 203.152344 C 282.238281 203.414062 282.191406 203.667969 282.089844 203.90625 C 281.988281 204.148438 281.847656 204.363281 281.660156 204.550781 C 281.476562 204.734375 281.261719 204.878906 281.019531 204.976562 C 280.777344 205.078125 280.527344 205.128906 280.265625 205.128906 L 259.519531 205.128906 C 259.257812 205.128906 259.007812 205.078125 258.765625 204.976562 C 258.523438 204.878906 258.308594 204.734375 258.125 204.550781 C 257.9375 204.363281 257.796875 204.148438 257.695312 203.90625 C 257.59375 203.667969 257.546875 203.414062 257.546875 203.152344 L 257.546875 96.953125 C 257.546875 96.691406 257.59375 96.441406 257.695312 96.199219 C 257.796875 95.957031 257.9375 95.742188 258.125 95.558594 C 258.308594 95.371094 258.523438 95.230469 258.765625 95.128906 C 259.007812 95.027344 259.257812 94.980469 259.519531 94.980469 Z M 259.519531 94.980469 " fill-opacity="1" fill-rule="nonzero"></path></g><g clip-path="url(#41ac5f4ed1)"><path fill="#2d8bba" d="M 259.519531 94.980469 L 280.265625 94.980469 C 280.527344 94.980469 280.777344 95.027344 281.019531 95.128906 C 281.261719 95.230469 281.476562 95.371094 281.660156 95.558594 C 281.847656 95.742188 281.988281 95.957031 282.089844 96.199219 C 282.191406 96.441406 282.238281 96.691406 282.238281 96.953125 L 282.238281 203.152344 C 282.238281 203.414062 282.191406 203.667969 282.089844 203.90625 C 281.988281 204.148438 281.847656 204.363281 281.660156 204.550781 C 281.476562 204.734375 281.261719 204.878906 281.019531 204.976562 C 280.777344 205.078125 280.527344 205.128906 280.265625 205.128906 L 259.519531 205.128906 C 259.257812 205.128906 259.007812 205.078125 258.765625 204.976562 C 258.523438 204.878906 258.308594 204.734375 258.125 204.550781 C 257.9375 204.363281 257.796875 204.148438 257.695312 203.90625 C 257.59375 203.667969 257.546875 203.414062 257.546875 203.152344 L 257.546875 96.953125 C 257.546875 96.691406 257.59375 96.441406 257.695312 96.199219 C 257.796875 95.957031 257.9375 95.742188 258.125 95.558594 C 258.308594 95.371094 258.523438 95.230469 258.765625 95.128906 C 259.007812 95.027344 259.257812 94.980469 259.519531 94.980469 Z M 259.519531 94.980469 " fill-opacity="1" fill-rule="nonzero"></path></g></svg><style>@media (prefers-color-scheme: light) { :root { filter: none; } }
</style></svg>